<?xml version="1.0" encoding="utf-8"?>
<!-- Generator: Adobe Illustrator 25.4.1, SVG Export Plug-In . SVG Version: 6.00 Build 0)  -->
<svg version="1.1" id="Layer_1" xmlns="http://www.w3.org/2000/svg" xmlns:xlink="http://www.w3.org/1999/xlink" x="0px" y="0px"
	 viewBox="0 0 190 213" style="enable-background:new 0 0 190 213;" xml:space="preserve">
<g>
	<g>
		<rect x="5" y="87" width="180" height="15"/>
		<rect x="25" y="66" width="140" height="15"/>
		<rect x="45" y="46" width="101" height="15"/>
		<rect x="60" y="25" width="70" height="15"/>
		<rect x="77" y="5" width="37" height="15"/>
	</g>
	<rect x="5" y="110" transform="matrix(-1 -1.224647e-16 1.224647e-16 -1 190 235)" width="180" height="15"/>
	<rect x="25" y="131" transform="matrix(-1 -1.224647e-16 1.224647e-16 -1 190 277)" width="140" height="15"/>
	<rect x="44" y="151" transform="matrix(-1 -1.224647e-16 1.224647e-16 -1 189 317)" width="101" height="15"/>
	<rect x="60" y="172" transform="matrix(-1 -1.224647e-16 1.224647e-16 -1 190 359)" width="70" height="15"/>
	<rect x="76" y="192" transform="matrix(-1 -1.224647e-16 1.224647e-16 -1 189 399)" width="37" height="15"/>
</g>
</svg>
