<?xml version="1.0" encoding="utf-8"?>
<!-- Generator: Adobe Illustrator 25.4.1, SVG Export Plug-In . SVG Version: 6.00 Build 0)  -->
<svg version="1.1" id="Layer_1" xmlns="http://www.w3.org/2000/svg" xmlns:xlink="http://www.w3.org/1999/xlink" x="0px" y="0px"
	 viewBox="0 0 130 127" style="enable-background:new 0 0 130 127;" xml:space="preserve">
<style type="text/css">
	.st0{fill:none;stroke:#000000;stroke-width:2;stroke-miterlimit:10;}
</style>
<g>
	<g>
		<path class="st0" d="M-24.4,95.6c3.7-3.7,16.4,9,20.1,5.3c3.7-3.7-9-16.4-5.3-20.1c3.7-3.7,16.4,9,20.1,5.3
			c3.7-3.7-9-16.4-5.3-20.1c3.7-3.7,16.4,9,20.1,5.3c3.7-3.7-9-16.4-5.3-20.1c3.7-3.7,16.4,9,20.1,5.3c3.7-3.7-9-16.4-5.3-20.1
			c3.7-3.7,16.4,9,20.1,5.3c3.7-3.7-9-16.4-5.3-20.1c3.7-3.7,16.4,9,20.1,5.3c3.7-3.7-9-16.4-5.3-20.1c3.7-3.7,16.4,9,20.1,5.3
			c3.7-3.7-9-16.4-5.3-20.1c3.7-3.7,16.4,9,20.1,5.3"/>
	</g>
	<g>
		<path class="st0" d="M-27.3,129.6c4.8-4.8,17.5,8,22.3,3.2c4.8-4.8-7.9-17.6-3-22.4c4.8-4.8,17.5,8,22.3,3.2
			c4.8-4.8-7.9-17.6-3-22.4c4.8-4.8,17.5,8,22.3,3.2c4.8-4.8-7.9-17.6-3-22.4c4.8-4.8,17.5,8,22.3,3.2c4.8-4.8-7.9-17.6-3-22.4
			c4.8-4.8,17.5,8,22.3,3.2c4.8-4.8-7.9-17.6-3-22.4c4.8-4.8,17.5,8,22.4,3.2c4.8-4.8-7.8-17.6-3-22.4c4.8-4.8,17.5,8,22.4,3.2
			c4.8-4.8-7.8-17.6-3-22.4c4.8-4.8,17.5,8,22.4,3.2"/>
	</g>
	<g>
		<path class="st0" d="M-38.1,79.5c3.7-3.7,16.4,9.1,20.1,5.4c3.7-3.7-9.1-16.4-5.4-20c3.7-3.7,16.4,9.1,20.1,5.4
			c3.7-3.7-9.1-16.4-5.4-20c3.7-3.7,16.4,9.1,20.1,5.4c3.7-3.7-9.1-16.4-5.4-20c3.7-3.7,16.4,9.1,20,5.4c3.7-3.7-9.1-16.4-5.4-20
			c3.7-3.7,16.4,9.1,20.1,5.4c3.7-3.7-9.1-16.4-5.4-20c3.7-3.7,16.4,9.1,20.1,5.4C58.8,8,46-4.7,49.7-8.4C53.3-12,66.1,0.7,69.7-3
			c3.7-3.7-9.1-16.4-5.4-20s16.4,9.1,20.1,5.4"/>
	</g>
	<g>
		<path class="st0" d="M-50.1,61.5c3.5-3.5,16.2,9.3,19.7,5.8c3.5-3.5-9.3-16.2-5.8-19.7c3.5-3.5,16.2,9.3,19.7,5.8
			c3.5-3.5-9.3-16.2-5.8-19.7c3.5-3.5,16.2,9.3,19.7,5.8c3.5-3.5-9.3-16.2-5.8-19.7c3.5-3.5,16.2,9.3,19.7,5.8
			c3.5-3.5-9.3-16.2-5.8-19.7c3.5-3.5,16.2,9.3,19.7,5.8C28.7,8.2,16-4.5,19.5-8c3.5-3.5,16.2,9.3,19.7,5.8
			c3.5-3.5-9.3-16.2-5.8-19.7c3.5-3.5,16.2,9.2,19.7,5.8c3.5-3.5-9.2-16.2-5.8-19.7c3.5-3.5,16.2,9.2,19.7,5.8"/>
	</g>
</g>
</svg>
