<?xml version="1.0" encoding="utf-8"?>
<!-- Generator: Adobe Illustrator 25.4.1, SVG Export Plug-In . SVG Version: 6.00 Build 0)  -->
<svg version="1.1" id="Layer_1" xmlns="http://www.w3.org/2000/svg" xmlns:xlink="http://www.w3.org/1999/xlink" x="0px" y="0px"
	 viewBox="0 0 52 99" style="enable-background:new 0 0 52 99;" xml:space="preserve">
<style type="text/css">
	.st0{fill:none;stroke:#000000;stroke-miterlimit:10;}
	.st1{fill:none;stroke:#000000;stroke-width:2;stroke-miterlimit:10;}
</style>
<path class="st0" d="M111.5,76.5"/>
<g>
	<path class="st1" d="M19,14.4c0,0,1.1,3.5,2.6,5.2c1.2,1.3,2,1.4,5.2,3.1c3.5,1.8,5.2,2.6,7,4.1c1.7,1.4,3.2,2.7,4.4,5.2
		c1.7,3.8,1.2,7.6,0.9,9.3c-0.3,1-1.3,5.8-5.2,8.3c-2.4,1.2-4.2,1.8-6.8,1.5c-2.6-0.4-6.2-1.2-8.1-3.6c-0.3-0.3-2.7-3.6-1.7-7.2
		c1-4.1,5.5-5.1,6.1-5.2c3.8-0.8,6.9,1.7,8.7,3.1c1,0.7,4,3.3,6.1,8.3c1,2.3,3.5,7.2,0.9,14.5c-2.2,6.1-8.3,10-9.6,10.3
		c-0.8,0.2-5.8,1.2-10.5-2.1c-1.4-0.9-3.3-2.3-4.4-5.2c-0.1-0.4-0.7-3.4,0.8-6.6c1.7-3.6,4.6-4,5.4-4.1c3.8-0.2,7.2,3.6,7.8,4.3
		c6.5,8.2,2.6,24-1.8,35.4"/>
	<polygon class="st1" points="21.7,12.6 17.3,10.3 16,16 	"/>
</g>
</svg>
