<?xml version="1.0" encoding="utf-8"?>
<!-- Generator: Adobe Illustrator 25.4.1, SVG Export Plug-In . SVG Version: 6.00 Build 0)  -->
<svg version="1.1" id="Layer_1" xmlns="http://www.w3.org/2000/svg" xmlns:xlink="http://www.w3.org/1999/xlink" x="0px" y="0px"
	 viewBox="0 0 198 110" style="enable-background:new 0 0 198 110;" xml:space="preserve">
<style type="text/css">
	.st0{fill:none;stroke:#000000;stroke-width:2;stroke-miterlimit:10;}
</style>
<g>
	<path class="st0" d="M9.7,83.2c5.5-29.9,28.1-55,55.9-66.4c30.3-12.4,65.7-5.8,91,14.7c14.7,11.9,25.7,28.5,30.6,46.8"/>
	<path class="st0" d="M27.3,89C32,64.2,50.1,42.4,73.8,33.6c24.6-9.1,53.7-3.4,73.4,13.8c11.9,10.4,20,24.8,23.2,40.3"/>
	<path class="st0" d="M43,93.6C46,73.7,60.3,56,79.1,48.9c19.6-7.4,42.9-2.6,58.3,11.5c9.3,8.5,15.4,20.1,17.5,32.5"/>
	<path class="st0" d="M55.2,96.4C59,79,73,63,91,60c24-3,48,13,52.1,36.5"/>
</g>
<g>
	<path class="st0" d="M16.8,85.4c6.3-27.2,26.8-50.5,52.8-60.6C97.1,14,129.3,21.1,151.6,40c13.2,11.2,22.9,26.5,27.7,43.1"/>
	<path class="st0" d="M33.3,90.3c5.5-21.6,21-40.9,42.1-48.9c22.5-8.6,48.7-2.6,66.6,13c10.5,9.2,18.1,21.7,21.4,35.3"/>
	<path class="st0" d="M47.7,94.3C51.7,77.4,64,62.3,80.5,56c17.7-6.7,38-1.5,52.1,10.7c8.3,7.2,14.5,17,16.9,27.8"/>
</g>
</svg>
